<svg width="65" height="61" viewBox="0 0 65 61" fill="none" xmlns="http://www.w3.org/2000/svg">
<path d="M32.5 53.375C45.9619 53.375 56.875 43.1335 56.875 30.5C56.875 17.8665 45.9619 7.625 32.5 7.625C19.0381 7.625 8.125 17.8665 8.125 30.5C8.125 43.1335 19.0381 53.375 32.5 53.375Z" stroke="#F1F1F1" stroke-width="4" stroke-linecap="round" stroke-linejoin="round"/>
<path d="M32.5 38.125C38.1091 38.125 42.6562 33.8577 42.6562 28.5938C42.6562 23.3298 38.1091 19.0625 32.5 19.0625C26.8909 19.0625 22.3438 23.3298 22.3438 28.5938C22.3438 33.8577 26.8909 38.125 32.5 38.125Z" stroke="#F1F1F1" stroke-width="4" stroke-linecap="round" stroke-linejoin="round"/>
<path d="M16.1992 47.5133C17.7275 44.6883 20.0595 42.3156 22.9367 40.6582C25.8139 39.0008 29.124 38.1235 32.5 38.1235C35.876 38.1235 39.186 39.0008 42.0633 40.6582C44.9405 42.3156 47.2725 44.6883 48.8008 47.5133" stroke="#F1F1F1" stroke-width="4" stroke-linecap="round" stroke-linejoin="round"/>
</svg>
